<svg width="390" height="404" viewBox="0 0 390 404" fill="none" xmlns="http://www.w3.org/2000/svg">
<path d="M187.168 142.667C190.176 141.007 193.824 141.007 196.832 142.667L245.722 169.648C248.91 171.407 250.89 174.761 250.89 178.403V231.597C250.89 235.239 248.91 238.593 245.722 240.352L196.832 267.333C193.824 268.993 190.176 268.993 187.168 267.333L138.278 240.352C135.09 238.593 133.11 235.239 133.11 231.597V178.403C133.11 174.761 135.09 171.407 138.278 169.648L187.168 142.667Z" fill="black"/>
<rect width="56.518" height="56.518" rx="10" transform="matrix(-0.868042 -0.496491 0.00404772 -0.999992 187.476 260.807)" fill="#00FFA3"/>
<rect width="56.518" height="56.518" rx="10" transform="matrix(0.00404767 0.999992 -0.868042 0.496491 245.476 176.228)" fill="#DC1FFF"/>
<rect width="52.7944" height="52.7944" rx="10" transform="matrix(0.880775 -0.473535 0.880775 0.473535 145 171)" fill="white"/>
<path d="M187.168 72.6666C190.176 71.0069 193.824 71.0068 196.832 72.6666L245.722 99.6478C248.91 101.407 250.89 104.761 250.89 108.403V161.597C250.89 165.239 248.91 168.593 245.722 170.352L196.832 197.333C193.824 198.993 190.176 198.993 187.168 197.333L138.278 170.352C135.09 168.593 133.11 165.239 133.11 161.597V108.403C133.11 104.761 135.09 101.407 138.278 99.6478L187.168 72.6666Z" fill="black"/>
<rect width="56.518" height="56.518" rx="10" transform="matrix(-0.868042 -0.496491 0.00404772 -0.999992 187.476 190.807)" fill="#00FFA3"/>
<rect width="56.518" height="56.518" rx="10" transform="matrix(0.00404767 0.999992 -0.868042 0.496491 245.476 106.228)" fill="#DC1FFF"/>
<rect width="52.7944" height="52.7944" rx="10" transform="matrix(0.880775 -0.473535 0.880775 0.473535 145 101)" fill="white"/>
<path d="M187.168 2.66658C190.176 1.00685 193.824 1.00685 196.832 2.66658L245.722 29.6478C248.91 31.4074 250.89 34.7612 250.89 38.403V91.597C250.89 95.2388 248.91 98.5926 245.722 100.352L196.832 127.333C193.824 128.993 190.176 128.993 187.168 127.333L138.278 100.352C135.09 98.5926 133.11 95.2388 133.11 91.597V38.403C133.11 34.7612 135.09 31.4074 138.278 29.6478L187.168 2.66658Z" fill="black"/>
<rect width="56.518" height="56.518" rx="10" transform="matrix(-0.868042 -0.496491 0.00404772 -0.999992 187.476 120.807)" fill="#00FFA3"/>
<rect width="56.518" height="56.518" rx="10" transform="matrix(0.00404767 0.999992 -0.868042 0.496491 245.476 36.2285)" fill="#DC1FFF"/>
<rect width="52.7944" height="52.7944" rx="10" transform="matrix(0.880775 -0.473535 0.880775 0.473535 145 31)" fill="white"/>
<path d="M246.168 175.667C249.176 174.007 252.824 174.007 255.832 175.667L304.722 202.648C307.91 204.407 309.89 207.761 309.89 211.403V264.597C309.89 268.239 307.91 271.593 304.722 273.352L255.832 300.333C252.824 301.993 249.176 301.993 246.168 300.333L197.278 273.352C194.09 271.593 192.11 268.239 192.11 264.597V211.403C192.11 207.761 194.09 204.407 197.278 202.648L246.168 175.667Z" fill="black"/>
<rect width="56.518" height="56.518" rx="10" transform="matrix(-0.868042 -0.496491 0.00404772 -0.999992 246.476 293.807)" fill="#00FFA3"/>
<rect width="56.518" height="56.518" rx="10" transform="matrix(0.00404767 0.999992 -0.868042 0.496491 304.476 209.228)" fill="#DC1FFF"/>
<rect width="52.7944" height="52.7944" rx="10" transform="matrix(0.880775 -0.473535 0.880775 0.473535 204 204)" fill="white"/>
<path d="M246.168 105.667C249.176 104.007 252.824 104.007 255.832 105.667L304.722 132.648C307.91 134.407 309.89 137.761 309.89 141.403V194.597C309.89 198.239 307.91 201.593 304.722 203.352L255.832 230.333C252.824 231.993 249.176 231.993 246.168 230.333L197.278 203.352C194.09 201.593 192.11 198.239 192.11 194.597V141.403C192.11 137.761 194.09 134.407 197.278 132.648L246.168 105.667Z" fill="black"/>
<rect width="56.518" height="56.518" rx="10" transform="matrix(-0.868042 -0.496491 0.00404772 -0.999992 246.476 223.807)" fill="#00FFA3"/>
<rect width="56.518" height="56.518" rx="10" transform="matrix(0.00404767 0.999992 -0.868042 0.496491 304.476 139.228)" fill="#DC1FFF"/>
<rect width="52.7944" height="52.7944" rx="10" transform="matrix(0.880775 -0.473535 0.880775 0.473535 204 134)" fill="white"/>
<path d="M246.168 35.6666C249.176 34.0069 252.824 34.0068 255.832 35.6666L304.722 62.6478C307.91 64.4074 309.89 67.7612 309.89 71.403V124.597C309.89 128.239 307.91 131.593 304.722 133.352L255.832 160.333C252.824 161.993 249.176 161.993 246.168 160.333L197.278 133.352C194.09 131.593 192.11 128.239 192.11 124.597V71.403C192.11 67.7612 194.09 64.4074 197.278 62.6478L246.168 35.6666Z" fill="black"/>
<rect width="56.518" height="56.518" rx="10" transform="matrix(-0.868042 -0.496491 0.00404772 -0.999992 246.476 153.807)" fill="#00FFA3"/>
<rect width="56.518" height="56.518" rx="10" transform="matrix(0.00404767 0.999992 -0.868042 0.496491 304.476 69.2284)" fill="#DC1FFF"/>
<rect width="52.7944" height="52.7944" rx="10" transform="matrix(0.880775 -0.473535 0.880775 0.473535 204 64)" fill="white"/>
<path d="M306.168 208.667C309.176 207.007 312.824 207.007 315.832 208.667L364.722 235.648C367.91 237.407 369.89 240.761 369.89 244.403V297.597C369.89 301.239 367.91 304.593 364.722 306.352L315.832 333.333C312.824 334.993 309.176 334.993 306.168 333.333L257.278 306.352C254.09 304.593 252.11 301.239 252.11 297.597V244.403C252.11 240.761 254.09 237.407 257.278 235.648L306.168 208.667Z" fill="black"/>
<rect width="56.518" height="56.518" rx="10" transform="matrix(-0.868042 -0.496491 0.00404772 -0.999992 306.476 326.807)" fill="#00FFA3"/>
<rect width="56.518" height="56.518" rx="10" transform="matrix(0.00404767 0.999992 -0.868042 0.496491 364.476 242.228)" fill="#DC1FFF"/>
<rect width="52.7944" height="52.7944" rx="10" transform="matrix(0.880775 -0.473535 0.880775 0.473535 264 237)" fill="white"/>
<path d="M306.168 138.667C309.176 137.007 312.824 137.007 315.832 138.667L364.722 165.648C367.91 167.407 369.89 170.761 369.89 174.403V227.597C369.89 231.239 367.91 234.593 364.722 236.352L315.832 263.333C312.824 264.993 309.176 264.993 306.168 263.333L257.278 236.352C254.09 234.593 252.11 231.239 252.11 227.597V174.403C252.11 170.761 254.09 167.407 257.278 165.648L306.168 138.667Z" fill="black"/>
<rect width="56.518" height="56.518" rx="10" transform="matrix(-0.868042 -0.496491 0.00404772 -0.999992 306.476 256.807)" fill="#00FFA3"/>
<rect width="56.518" height="56.518" rx="10" transform="matrix(0.00404767 0.999992 -0.868042 0.496491 364.476 172.228)" fill="#DC1FFF"/>
<rect width="52.7944" height="52.7944" rx="10" transform="matrix(0.880775 -0.473535 0.880775 0.473535 264 167)" fill="white"/>
<path d="M306.168 68.6666C309.176 67.0069 312.824 67.0068 315.832 68.6666L364.722 95.6478C367.91 97.4074 369.89 100.761 369.89 104.403V157.597C369.89 161.239 367.91 164.593 364.722 166.352L315.832 193.333C312.824 194.993 309.176 194.993 306.168 193.333L257.278 166.352C254.09 164.593 252.11 161.239 252.11 157.597V104.403C252.11 100.761 254.09 97.4074 257.278 95.6478L306.168 68.6666Z" fill="black"/>
<rect width="56.518" height="56.518" rx="10" transform="matrix(-0.868042 -0.496491 0.00404772 -0.999992 306.476 186.807)" fill="#00FFA3"/>
<rect width="56.518" height="56.518" rx="10" transform="matrix(0.00404767 0.999992 -0.868042 0.496491 364.476 102.228)" fill="#DC1FFF"/>
<rect width="52.7944" height="52.7944" rx="10" transform="matrix(0.880775 -0.473535 0.880775 0.473535 264 97)" fill="white"/>
<path d="M131.168 173.667C134.176 172.007 137.824 172.007 140.832 173.667L189.722 200.648C192.91 202.407 194.89 205.761 194.89 209.403V262.597C194.89 266.239 192.91 269.593 189.722 271.352L140.832 298.333C137.824 299.993 134.176 299.993 131.168 298.333L82.2785 271.352C79.09 269.593 77.1103 266.239 77.1103 262.597V209.403C77.1103 205.761 79.09 202.407 82.2785 200.648L131.168 173.667Z" fill="black"/>
<rect width="56.518" height="56.518" rx="10" transform="matrix(-0.868042 -0.496491 0.00404772 -0.999992 131.476 291.807)" fill="#00FFA3"/>
<rect width="56.518" height="56.518" rx="10" transform="matrix(0.00404767 0.999992 -0.868042 0.496491 189.476 207.228)" fill="#DC1FFF"/>
<rect width="52.7944" height="52.7944" rx="10" transform="matrix(0.880775 -0.473535 0.880775 0.473535 89 202)" fill="white"/>
<path d="M131.168 103.667C134.176 102.007 137.824 102.007 140.832 103.667L189.722 130.648C192.91 132.407 194.89 135.761 194.89 139.403V192.597C194.89 196.239 192.91 199.593 189.722 201.352L140.832 228.333C137.824 229.993 134.176 229.993 131.168 228.333L82.2785 201.352C79.09 199.593 77.1103 196.239 77.1103 192.597V139.403C77.1103 135.761 79.09 132.407 82.2785 130.648L131.168 103.667Z" fill="black"/>
<rect width="56.518" height="56.518" rx="10" transform="matrix(-0.868042 -0.496491 0.00404772 -0.999992 131.476 221.807)" fill="#00FFA3"/>
<rect width="56.518" height="56.518" rx="10" transform="matrix(0.00404767 0.999992 -0.868042 0.496491 189.476 137.228)" fill="#DC1FFF"/>
<rect width="52.7944" height="52.7944" rx="10" transform="matrix(0.880775 -0.473535 0.880775 0.473535 89 132)" fill="white"/>
<path d="M131.168 33.6666C134.176 32.0069 137.824 32.0068 140.832 33.6666L189.722 60.6478C192.91 62.4074 194.89 65.7612 194.89 69.403V122.597C194.89 126.239 192.91 129.593 189.722 131.352L140.832 158.333C137.824 159.993 134.176 159.993 131.168 158.333L82.2785 131.352C79.09 129.593 77.1103 126.239 77.1103 122.597V69.403C77.1103 65.7612 79.09 62.4074 82.2785 60.6478L131.168 33.6666Z" fill="black"/>
<rect width="56.518" height="56.518" rx="10" transform="matrix(-0.868042 -0.496491 0.00404772 -0.999992 131.476 151.807)" fill="#00FFA3"/>
<rect width="56.518" height="56.518" rx="10" transform="matrix(0.00404767 0.999992 -0.868042 0.496491 189.476 67.2284)" fill="#DC1FFF"/>
<rect width="52.7944" height="52.7944" rx="10" transform="matrix(0.880775 -0.473535 0.880775 0.473535 89 62)" fill="white"/>
<path d="M190.168 206.667C193.176 205.007 196.824 205.007 199.832 206.667L248.722 233.648C251.91 235.407 253.89 238.761 253.89 242.403V295.597C253.89 299.239 251.91 302.593 248.722 304.352L199.832 331.333C196.824 332.993 193.176 332.993 190.168 331.333L141.278 304.352C138.09 302.593 136.11 299.239 136.11 295.597V242.403C136.11 238.761 138.09 235.407 141.278 233.648L190.168 206.667Z" fill="black"/>
<rect width="56.518" height="56.518" rx="10" transform="matrix(-0.868042 -0.496491 0.00404772 -0.999992 190.476 324.807)" fill="#00FFA3"/>
<rect width="56.518" height="56.518" rx="10" transform="matrix(0.00404767 0.999992 -0.868042 0.496491 248.476 240.228)" fill="#DC1FFF"/>
<rect width="52.7944" height="52.7944" rx="10" transform="matrix(0.880775 -0.473535 0.880775 0.473535 148 235)" fill="white"/>
<path d="M190.168 136.667C193.176 135.007 196.824 135.007 199.832 136.667L248.722 163.648C251.91 165.407 253.89 168.761 253.89 172.403V225.597C253.89 229.239 251.91 232.593 248.722 234.352L199.832 261.333C196.824 262.993 193.176 262.993 190.168 261.333L141.278 234.352C138.09 232.593 136.11 229.239 136.11 225.597V172.403C136.11 168.761 138.09 165.407 141.278 163.648L190.168 136.667Z" fill="black"/>
<rect width="56.518" height="56.518" rx="10" transform="matrix(-0.868042 -0.496491 0.00404772 -0.999992 190.476 254.807)" fill="#00FFA3"/>
<rect width="56.518" height="56.518" rx="10" transform="matrix(0.00404767 0.999992 -0.868042 0.496491 248.476 170.228)" fill="#DC1FFF"/>
<rect width="52.7944" height="52.7944" rx="10" transform="matrix(0.880775 -0.473535 0.880775 0.473535 148 165)" fill="white"/>
<path d="M190.168 66.6666C193.176 65.0069 196.824 65.0068 199.832 66.6666L248.722 93.6478C251.91 95.4074 253.89 98.7612 253.89 102.403V155.597C253.89 159.239 251.91 162.593 248.722 164.352L199.832 191.333C196.824 192.993 193.176 192.993 190.168 191.333L141.278 164.352C138.09 162.593 136.11 159.239 136.11 155.597V102.403C136.11 98.7612 138.09 95.4074 141.278 93.6478L190.168 66.6666Z" fill="black"/>
<rect width="56.518" height="56.518" rx="10" transform="matrix(-0.868042 -0.496491 0.00404772 -0.999992 190.476 184.807)" fill="#00FFA3"/>
<rect width="56.518" height="56.518" rx="10" transform="matrix(0.00404767 0.999992 -0.868042 0.496491 248.476 100.228)" fill="#DC1FFF"/>
<rect width="52.7944" height="52.7944" rx="10" transform="matrix(0.880775 -0.473535 0.880775 0.473535 148 95)" fill="white"/>
<path d="M250.168 239.667C253.176 238.007 256.824 238.007 259.832 239.667L308.722 266.648C311.91 268.407 313.89 271.761 313.89 275.403V328.597C313.89 332.239 311.91 335.593 308.722 337.352L259.832 364.333C256.824 365.993 253.176 365.993 250.168 364.333L201.278 337.352C198.09 335.593 196.11 332.239 196.11 328.597V275.403C196.11 271.761 198.09 268.407 201.278 266.648L250.168 239.667Z" fill="black"/>
<rect width="56.518" height="56.518" rx="10" transform="matrix(-0.868042 -0.496491 0.00404772 -0.999992 250.476 357.807)" fill="#00FFA3"/>
<rect width="56.518" height="56.518" rx="10" transform="matrix(0.00404767 0.999992 -0.868042 0.496491 308.476 273.228)" fill="#DC1FFF"/>
<rect width="52.7944" height="52.7944" rx="10" transform="matrix(0.880775 -0.473535 0.880775 0.473535 208 268)" fill="white"/>
<path d="M250.168 169.667C253.176 168.007 256.824 168.007 259.832 169.667L308.722 196.648C311.91 198.407 313.89 201.761 313.89 205.403V258.597C313.89 262.239 311.91 265.593 308.722 267.352L259.832 294.333C256.824 295.993 253.176 295.993 250.168 294.333L201.278 267.352C198.09 265.593 196.11 262.239 196.11 258.597V205.403C196.11 201.761 198.09 198.407 201.278 196.648L250.168 169.667Z" fill="black"/>
<rect width="56.518" height="56.518" rx="10" transform="matrix(-0.868042 -0.496491 0.00404772 -0.999992 250.476 287.807)" fill="#00FFA3"/>
<rect width="56.518" height="56.518" rx="10" transform="matrix(0.00404767 0.999992 -0.868042 0.496491 308.476 203.228)" fill="#DC1FFF"/>
<rect width="52.7944" height="52.7944" rx="10" transform="matrix(0.880775 -0.473535 0.880775 0.473535 208 198)" fill="white"/>
<path d="M250.168 99.6666C253.176 98.0069 256.824 98.0068 259.832 99.6666L308.722 126.648C311.91 128.407 313.89 131.761 313.89 135.403V188.597C313.89 192.239 311.91 195.593 308.722 197.352L259.832 224.333C256.824 225.993 253.176 225.993 250.168 224.333L201.278 197.352C198.09 195.593 196.11 192.239 196.11 188.597V135.403C196.11 131.761 198.09 128.407 201.278 126.648L250.168 99.6666Z" fill="black"/>
<rect width="56.518" height="56.518" rx="10" transform="matrix(-0.868042 -0.496491 0.00404772 -0.999992 250.476 217.807)" fill="#00FFA3"/>
<rect width="56.518" height="56.518" rx="10" transform="matrix(0.00404767 0.999992 -0.868042 0.496491 308.476 133.228)" fill="#DC1FFF"/>
<rect width="52.7944" height="52.7944" rx="10" transform="matrix(0.880775 -0.473535 0.880775 0.473535 208 128)" fill="white"/>
<path d="M73.1682 204.667C76.1756 203.007 79.8244 203.007 82.8318 204.667L131.722 231.648C134.91 233.407 136.89 236.761 136.89 240.403V293.597C136.89 297.239 134.91 300.593 131.722 302.352L82.8318 329.333C79.8244 330.993 76.1756 330.993 73.1682 329.333L24.2785 302.352C21.09 300.593 19.1103 297.239 19.1103 293.597V240.403C19.1103 236.761 21.09 233.407 24.2785 231.648L73.1682 204.667Z" fill="black"/>
<rect width="56.518" height="56.518" rx="10" transform="matrix(-0.868042 -0.496491 0.00404772 -0.999992 73.4756 322.807)" fill="#00FFA3"/>
<rect width="56.518" height="56.518" rx="10" transform="matrix(0.00404767 0.999992 -0.868042 0.496491 131.476 238.228)" fill="#DC1FFF"/>
<rect width="52.7944" height="52.7944" rx="10" transform="matrix(0.880775 -0.473535 0.880775 0.473535 31 233)" fill="white"/>
<path d="M73.1682 134.667C76.1756 133.007 79.8244 133.007 82.8318 134.667L131.722 161.648C134.91 163.407 136.89 166.761 136.89 170.403V223.597C136.89 227.239 134.91 230.593 131.722 232.352L82.8318 259.333C79.8244 260.993 76.1756 260.993 73.1682 259.333L24.2785 232.352C21.09 230.593 19.1103 227.239 19.1103 223.597V170.403C19.1103 166.761 21.09 163.407 24.2785 161.648L73.1682 134.667Z" fill="black"/>
<rect width="56.518" height="56.518" rx="10" transform="matrix(-0.868042 -0.496491 0.00404772 -0.999992 73.4756 252.807)" fill="#00FFA3"/>
<rect width="56.518" height="56.518" rx="10" transform="matrix(0.00404767 0.999992 -0.868042 0.496491 131.476 168.228)" fill="#DC1FFF"/>
<rect width="52.7944" height="52.7944" rx="10" transform="matrix(0.880775 -0.473535 0.880775 0.473535 31 163)" fill="white"/>
<path d="M73.1682 64.6666C76.1756 63.0069 79.8244 63.0068 82.8318 64.6666L131.722 91.6478C134.91 93.4074 136.89 96.7612 136.89 100.403V153.597C136.89 157.239 134.91 160.593 131.722 162.352L82.8318 189.333C79.8244 190.993 76.1756 190.993 73.1682 189.333L24.2785 162.352C21.09 160.593 19.1103 157.239 19.1103 153.597V100.403C19.1103 96.7612 21.09 93.4074 24.2785 91.6478L73.1682 64.6666Z" fill="black"/>
<rect width="56.518" height="56.518" rx="10" transform="matrix(-0.868042 -0.496491 0.00404772 -0.999992 73.4756 182.807)" fill="#00FFA3"/>
<rect width="56.518" height="56.518" rx="10" transform="matrix(0.00404767 0.999992 -0.868042 0.496491 131.476 98.2284)" fill="#DC1FFF"/>
<rect width="52.7944" height="52.7944" rx="10" transform="matrix(0.880775 -0.473535 0.880775 0.473535 31 93)" fill="white"/>
<path d="M132.168 237.667C135.176 236.007 138.824 236.007 141.832 237.667L190.722 264.648C193.91 266.407 195.89 269.761 195.89 273.403V326.597C195.89 330.239 193.91 333.593 190.722 335.352L141.832 362.333C138.824 363.993 135.176 363.993 132.168 362.333L83.2785 335.352C80.09 333.593 78.1103 330.239 78.1103 326.597V273.403C78.1103 269.761 80.09 266.407 83.2785 264.648L132.168 237.667Z" fill="black"/>
<rect width="56.518" height="56.518" rx="10" transform="matrix(-0.868042 -0.496491 0.00404772 -0.999992 132.476 355.807)" fill="#00FFA3"/>
<rect width="56.518" height="56.518" rx="10" transform="matrix(0.00404767 0.999992 -0.868042 0.496491 190.476 271.228)" fill="#DC1FFF"/>
<rect width="52.7944" height="52.7944" rx="10" transform="matrix(0.880775 -0.473535 0.880775 0.473535 90 266)" fill="white"/>
<path d="M132.168 167.667C135.176 166.007 138.824 166.007 141.832 167.667L190.722 194.648C193.91 196.407 195.89 199.761 195.89 203.403V256.597C195.89 260.239 193.91 263.593 190.722 265.352L141.832 292.333C138.824 293.993 135.176 293.993 132.168 292.333L83.2785 265.352C80.09 263.593 78.1103 260.239 78.1103 256.597V203.403C78.1103 199.761 80.09 196.407 83.2785 194.648L132.168 167.667Z" fill="black"/>
<rect width="56.518" height="56.518" rx="10" transform="matrix(-0.868042 -0.496491 0.00404772 -0.999992 132.476 285.807)" fill="#00FFA3"/>
<rect width="56.518" height="56.518" rx="10" transform="matrix(0.00404767 0.999992 -0.868042 0.496491 190.476 201.228)" fill="#DC1FFF"/>
<rect width="52.7944" height="52.7944" rx="10" transform="matrix(0.880775 -0.473535 0.880775 0.473535 90 196)" fill="white"/>
<path d="M132.168 97.6666C135.176 96.0069 138.824 96.0068 141.832 97.6666L190.722 124.648C193.91 126.407 195.89 129.761 195.89 133.403V186.597C195.89 190.239 193.91 193.593 190.722 195.352L141.832 222.333C138.824 223.993 135.176 223.993 132.168 222.333L83.2785 195.352C80.09 193.593 78.1103 190.239 78.1103 186.597V133.403C78.1103 129.761 80.09 126.407 83.2785 124.648L132.168 97.6666Z" fill="black"/>
<rect width="56.518" height="56.518" rx="10" transform="matrix(-0.868042 -0.496491 0.00404772 -0.999992 132.476 215.807)" fill="#00FFA3"/>
<rect width="56.518" height="56.518" rx="10" transform="matrix(0.00404767 0.999992 -0.868042 0.496491 190.476 131.228)" fill="#DC1FFF"/>
<rect width="52.7944" height="52.7944" rx="10" transform="matrix(0.880775 -0.473535 0.880775 0.473535 90 126)" fill="white"/>
<path d="M192.168 270.667C195.176 269.007 198.824 269.007 201.832 270.667L250.722 297.648C253.91 299.407 255.89 302.761 255.89 306.403V359.597C255.89 363.239 253.91 366.593 250.722 368.352L201.832 395.333C198.824 396.993 195.176 396.993 192.168 395.333L143.278 368.352C140.09 366.593 138.11 363.239 138.11 359.597V306.403C138.11 302.761 140.09 299.407 143.278 297.648L192.168 270.667Z" fill="black"/>
<rect width="56.518" height="56.518" rx="10" transform="matrix(-0.868042 -0.496491 0.00404772 -0.999992 192.476 388.807)" fill="#00FFA3"/>
<rect width="56.518" height="56.518" rx="10" transform="matrix(0.00404767 0.999992 -0.868042 0.496491 250.476 304.228)" fill="#DC1FFF"/>
<rect width="52.7944" height="52.7944" rx="10" transform="matrix(0.880775 -0.473535 0.880775 0.473535 150 299)" fill="white"/>
<path d="M192.168 200.667C195.176 199.007 198.824 199.007 201.832 200.667L250.722 227.648C253.91 229.407 255.89 232.761 255.89 236.403V289.597C255.89 293.239 253.91 296.593 250.722 298.352L201.832 325.333C198.824 326.993 195.176 326.993 192.168 325.333L143.278 298.352C140.09 296.593 138.11 293.239 138.11 289.597V236.403C138.11 232.761 140.09 229.407 143.278 227.648L192.168 200.667Z" fill="black"/>
<rect width="56.518" height="56.518" rx="10" transform="matrix(-0.868042 -0.496491 0.00404772 -0.999992 192.476 318.807)" fill="#00FFA3"/>
<rect width="56.518" height="56.518" rx="10" transform="matrix(0.00404767 0.999992 -0.868042 0.496491 250.476 234.228)" fill="#DC1FFF"/>
<rect width="52.7944" height="52.7944" rx="10" transform="matrix(0.880775 -0.473535 0.880775 0.473535 150 229)" fill="white"/>
<path d="M192.168 130.667C195.176 129.007 198.824 129.007 201.832 130.667L250.722 157.648C253.91 159.407 255.89 162.761 255.89 166.403V219.597C255.89 223.239 253.91 226.593 250.722 228.352L201.832 255.333C198.824 256.993 195.176 256.993 192.168 255.333L143.278 228.352C140.09 226.593 138.11 223.239 138.11 219.597V166.403C138.11 162.761 140.09 159.407 143.278 157.648L192.168 130.667Z" fill="black"/>
<rect width="56.518" height="56.518" rx="10" transform="matrix(-0.868042 -0.496491 0.00404772 -0.999992 192.476 248.807)" fill="#00FFA3"/>
<rect width="56.518" height="56.518" rx="10" transform="matrix(0.00404767 0.999992 -0.868042 0.496491 250.476 164.228)" fill="#DC1FFF"/>
<rect width="52.7944" height="52.7944" rx="10" transform="matrix(0.880775 -0.473535 0.880775 0.473535 150 159)" fill="white"/>
</svg>
