<svg width="1408" height="393" viewBox="0 0 1408 393" fill="none" xmlns="http://www.w3.org/2000/svg">
<rect x="-3.53894" y="5.94198" width="43.5218" height="43.5218" rx="6" transform="matrix(-0.00375887 0.988226 -0.880976 0.497269 225.864 152.132)" stroke="#DC1FFF" stroke-width="8"/>
<rect x="-3.53894" y="5.94198" width="43.5218" height="43.5218" rx="6" transform="matrix(-0.00375887 0.988226 -0.880976 0.497269 278.474 123.132)" stroke="#DC1FFF" stroke-width="8"/>
<rect x="-3.53894" y="5.94198" width="43.5218" height="43.5218" rx="6" transform="matrix(-0.00375887 0.988226 -0.880976 0.497269 331.085 94.132)" stroke="#DC1FFF" stroke-width="8"/>
<rect x="-3.53894" y="5.94198" width="43.5218" height="43.5218" rx="6" transform="matrix(-0.00375887 0.988226 -0.880976 0.497269 225.864 212.132)" stroke="#DC1FFF" stroke-width="8"/>
<rect x="-3.53894" y="5.94198" width="43.5218" height="43.5218" rx="6" transform="matrix(-0.00375887 0.988226 -0.880976 0.497269 278.474 183.132)" stroke="#DC1FFF" stroke-width="8"/>
<rect x="-3.53894" y="5.94198" width="43.5218" height="43.5218" rx="6" transform="matrix(-0.00375887 0.988226 -0.880976 0.497269 331.085 154.132)" stroke="#DC1FFF" stroke-width="8"/>
<rect x="-3.53894" y="5.94198" width="43.5218" height="43.5218" rx="6" transform="matrix(-0.00375887 0.988226 -0.880976 0.497269 225.864 270.132)" stroke="#DC1FFF" stroke-width="8"/>
<rect x="-3.53894" y="5.94198" width="43.5218" height="43.5218" rx="6" transform="matrix(-0.00375887 0.988226 -0.880976 0.497269 278.474 241.132)" stroke="#DC1FFF" stroke-width="8"/>
<rect x="-3.53894" y="5.94198" width="43.5218" height="43.5218" rx="6" transform="matrix(-0.00375887 0.988226 -0.880976 0.497269 331.085 212.132)" stroke="#DC1FFF" stroke-width="8"/>
<rect x="3.53894" y="5.94198" width="43.5218" height="43.5218" rx="6" transform="matrix(0.00375887 0.988226 0.880976 0.497269 126.11 145.137)" stroke="#00FFA3" stroke-width="8"/>
<rect x="3.53894" y="5.94198" width="43.5218" height="43.5218" rx="6" transform="matrix(0.00375887 0.988226 0.880976 0.497269 73.4996 116.137)" stroke="#00FFA3" stroke-width="8"/>
<rect x="3.53894" y="5.94198" width="43.5218" height="43.5218" rx="6" transform="matrix(0.00375887 0.988226 0.880976 0.497269 20.8888 87.1375)" stroke="#00FFA3" stroke-width="8"/>
<rect x="3.53894" y="5.94198" width="43.5218" height="43.5218" rx="6" transform="matrix(0.00375887 0.988226 0.880976 0.497269 126.11 205.137)" stroke="#00FFA3" stroke-width="8"/>
<rect x="3.53894" y="5.94198" width="43.5218" height="43.5218" rx="6" transform="matrix(0.00375887 0.988226 0.880976 0.497269 73.4996 176.138)" stroke="#00FFA3" stroke-width="8"/>
<rect x="3.53894" y="5.94198" width="43.5218" height="43.5218" rx="6" transform="matrix(0.00375887 0.988226 0.880976 0.497269 20.8888 147.137)" stroke="#00FFA3" stroke-width="8"/>
<rect x="3.53894" y="5.94198" width="43.5218" height="43.5218" rx="6" transform="matrix(0.00375887 0.988226 0.880976 0.497269 126.11 263.137)" stroke="#00FFA3" stroke-width="8"/>
<rect x="3.53894" y="5.94198" width="43.5218" height="43.5218" rx="6" transform="matrix(0.00375887 0.988226 0.880976 0.497269 73.4996 234.137)" stroke="#00FFA3" stroke-width="8"/>
<rect x="3.53894" y="5.94198" width="43.5218" height="43.5218" rx="6" transform="matrix(0.00375887 0.988226 0.880976 0.497269 20.8888 205.137)" stroke="#00FFA3" stroke-width="8"/>
<rect x="7.0462" y="2.38419e-07" width="45.4462" height="45.4462" rx="6" transform="matrix(0.880775 -0.473535 0.880775 0.473535 130.112 142.028)" stroke="white" stroke-width="8"/>
<rect x="7.0462" y="2.38419e-07" width="45.4462" height="45.4462" rx="6" transform="matrix(0.880775 -0.473535 0.880775 0.473535 77.4696 113.682)" stroke="white" stroke-width="8"/>
<rect x="7.0462" y="2.38419e-07" width="45.4462" height="45.4462" rx="6" transform="matrix(0.880775 -0.473535 0.880775 0.473535 25.8401 85.3366)" stroke="white" stroke-width="8"/>
<rect x="7.0462" y="2.38419e-07" width="45.4462" height="45.4462" rx="6" transform="matrix(0.880775 -0.473535 0.880775 0.473535 182.754 113.682)" stroke="white" stroke-width="8"/>
<rect x="7.0462" y="2.38419e-07" width="45.4462" height="45.4462" rx="6" transform="matrix(0.880775 -0.473535 0.880775 0.473535 130.112 85.3367)" stroke="white" stroke-width="8"/>
<rect x="7.0462" y="2.38419e-07" width="45.4462" height="45.4462" rx="6" transform="matrix(0.880775 -0.473535 0.880775 0.473535 78.4821 56.991)" stroke="white" stroke-width="8"/>
<rect x="7.0462" y="2.38419e-07" width="45.4462" height="45.4462" rx="6" transform="matrix(0.880775 -0.473535 0.880775 0.473535 235.396 85.3366)" stroke="white" stroke-width="8"/>
<rect x="7.0462" y="2.38419e-07" width="45.4462" height="45.4462" rx="6" transform="matrix(0.880775 -0.473535 0.880775 0.473535 182.754 56.991)" stroke="white" stroke-width="8"/>
<rect x="7.0462" y="2.38419e-07" width="45.4462" height="45.4462" rx="6" transform="matrix(0.880775 -0.473535 0.880775 0.473535 131.124 28.6453)" stroke="white" stroke-width="8"/>
<path d="M454 263V238H429V213H404V138H429V113H454V88H554V113H579V138H529V113H479V138H454V213H479V238H529V213H579V238H554V263H454ZM629 263V238H604V138H654V238H729V138H779V263H629ZM829 263V238H804V88H854V138H954V163H979V238H954V263H829ZM854 238H929V163H854V238ZM1029 263V238H1004V163H1029V138H1154V163H1179V213H1054V238H1154V263H1029ZM1054 188H1129V163H1054V188ZM1229 263V238H1204V163H1229V138H1329V88H1379V263H1229ZM1254 238H1329V163H1254V238Z" fill="white"/>
</svg>
