<svg width="352" height="353" viewBox="0 0 352 353" fill="none" xmlns="http://www.w3.org/2000/svg">
<rect x="-3.53894" y="5.94198" width="43.5218" height="43.5218" rx="6" transform="matrix(-0.00375887 0.988226 -0.880976 0.497269 225.864 152.132)" stroke="#DC1FFF" stroke-width="8"/>
<rect x="-3.53894" y="5.94198" width="43.5218" height="43.5218" rx="6" transform="matrix(-0.00375887 0.988226 -0.880976 0.497269 278.474 123.132)" stroke="#DC1FFF" stroke-width="8"/>
<rect x="-3.53894" y="5.94198" width="43.5218" height="43.5218" rx="6" transform="matrix(-0.00375887 0.988226 -0.880976 0.497269 331.085 94.132)" stroke="#DC1FFF" stroke-width="8"/>
<rect x="-3.53894" y="5.94198" width="43.5218" height="43.5218" rx="6" transform="matrix(-0.00375887 0.988226 -0.880976 0.497269 225.864 212.132)" stroke="#DC1FFF" stroke-width="8"/>
<rect x="-3.53894" y="5.94198" width="43.5218" height="43.5218" rx="6" transform="matrix(-0.00375887 0.988226 -0.880976 0.497269 278.474 183.132)" stroke="#DC1FFF" stroke-width="8"/>
<rect x="-3.53894" y="5.94198" width="43.5218" height="43.5218" rx="6" transform="matrix(-0.00375887 0.988226 -0.880976 0.497269 331.085 154.132)" stroke="#DC1FFF" stroke-width="8"/>
<rect x="-3.53894" y="5.94198" width="43.5218" height="43.5218" rx="6" transform="matrix(-0.00375887 0.988226 -0.880976 0.497269 225.864 270.132)" stroke="#DC1FFF" stroke-width="8"/>
<rect x="-3.53894" y="5.94198" width="43.5218" height="43.5218" rx="6" transform="matrix(-0.00375887 0.988226 -0.880976 0.497269 278.474 241.132)" stroke="#DC1FFF" stroke-width="8"/>
<rect x="-3.53894" y="5.94198" width="43.5218" height="43.5218" rx="6" transform="matrix(-0.00375887 0.988226 -0.880976 0.497269 331.085 212.132)" stroke="#DC1FFF" stroke-width="8"/>
<rect x="3.53894" y="5.94198" width="43.5218" height="43.5218" rx="6" transform="matrix(0.00375887 0.988226 0.880976 0.497269 126.11 145.137)" stroke="#00FFA3" stroke-width="8"/>
<rect x="3.53894" y="5.94198" width="43.5218" height="43.5218" rx="6" transform="matrix(0.00375887 0.988226 0.880976 0.497269 73.4998 116.138)" stroke="#00FFA3" stroke-width="8"/>
<rect x="3.53894" y="5.94198" width="43.5218" height="43.5218" rx="6" transform="matrix(0.00375887 0.988226 0.880976 0.497269 20.8888 87.1375)" stroke="#00FFA3" stroke-width="8"/>
<rect x="3.53894" y="5.94198" width="43.5218" height="43.5218" rx="6" transform="matrix(0.00375887 0.988226 0.880976 0.497269 126.11 205.137)" stroke="#00FFA3" stroke-width="8"/>
<rect x="3.53894" y="5.94198" width="43.5218" height="43.5218" rx="6" transform="matrix(0.00375887 0.988226 0.880976 0.497269 73.4998 176.138)" stroke="#00FFA3" stroke-width="8"/>
<rect x="3.53894" y="5.94198" width="43.5218" height="43.5218" rx="6" transform="matrix(0.00375887 0.988226 0.880976 0.497269 20.8888 147.137)" stroke="#00FFA3" stroke-width="8"/>
<rect x="3.53894" y="5.94198" width="43.5218" height="43.5218" rx="6" transform="matrix(0.00375887 0.988226 0.880976 0.497269 126.11 263.138)" stroke="#00FFA3" stroke-width="8"/>
<rect x="3.53894" y="5.94198" width="43.5218" height="43.5218" rx="6" transform="matrix(0.00375887 0.988226 0.880976 0.497269 73.4998 234.137)" stroke="#00FFA3" stroke-width="8"/>
<rect x="3.53894" y="5.94198" width="43.5218" height="43.5218" rx="6" transform="matrix(0.00375887 0.988226 0.880976 0.497269 20.8888 205.137)" stroke="#00FFA3" stroke-width="8"/>
<rect x="7.0462" y="2.38419e-07" width="45.4462" height="45.4462" rx="6" transform="matrix(0.880775 -0.473535 0.880775 0.473535 130.112 142.028)" stroke="white" stroke-width="8"/>
<rect x="7.0462" y="2.38419e-07" width="45.4462" height="45.4462" rx="6" transform="matrix(0.880775 -0.473535 0.880775 0.473535 77.4696 113.682)" stroke="white" stroke-width="8"/>
<rect x="7.0462" y="2.38419e-07" width="45.4462" height="45.4462" rx="6" transform="matrix(0.880775 -0.473535 0.880775 0.473535 25.8401 85.3366)" stroke="white" stroke-width="8"/>
<rect x="7.0462" y="2.38419e-07" width="45.4462" height="45.4462" rx="6" transform="matrix(0.880775 -0.473535 0.880775 0.473535 182.754 113.682)" stroke="white" stroke-width="8"/>
<rect x="7.0462" y="2.38419e-07" width="45.4462" height="45.4462" rx="6" transform="matrix(0.880775 -0.473535 0.880775 0.473535 130.112 85.3366)" stroke="white" stroke-width="8"/>
<rect x="7.0462" y="2.38419e-07" width="45.4462" height="45.4462" rx="6" transform="matrix(0.880775 -0.473535 0.880775 0.473535 78.4821 56.9909)" stroke="white" stroke-width="8"/>
<rect x="7.0462" y="2.38419e-07" width="45.4462" height="45.4462" rx="6" transform="matrix(0.880775 -0.473535 0.880775 0.473535 235.396 85.3366)" stroke="white" stroke-width="8"/>
<rect x="7.0462" y="2.38419e-07" width="45.4462" height="45.4462" rx="6" transform="matrix(0.880775 -0.473535 0.880775 0.473535 182.754 56.9909)" stroke="white" stroke-width="8"/>
<rect x="7.0462" y="2.38419e-07" width="45.4462" height="45.4462" rx="6" transform="matrix(0.880775 -0.473535 0.880775 0.473535 131.124 28.6452)" stroke="white" stroke-width="8"/>
</svg>
